<svg width="87" height="46" viewBox="0 0 87 46" fill="none" xmlns="http://www.w3.org/2000/svg">
<path d="M38.8796 22.9739L1.91612 7.31641C-0.638707 6.2342 -0.638707 4.48425 1.91612 3.41356L8.05857 0.811655C10.6134 -0.270552 14.7446 -0.270552 17.2723 0.811655L43.4728 11.91L69.6734 0.811655C72.2282 -0.270552 76.3594 -0.270552 78.8871 0.811655L85.0839 3.40204C87.6387 4.48425 87.6387 6.2342 85.0839 7.30489L48.1204 22.9624C45.5656 24.0561 41.4344 24.0561 38.8796 22.9739ZM48.1204 45.0785L85.0839 29.4211C87.6387 28.3388 87.6387 26.5889 85.0839 25.5182L78.9414 22.9163C76.3866 21.8341 72.2554 21.8341 69.7277 22.9163L43.5 34.0032L17.2994 22.9048C14.7446 21.8226 10.6134 21.8226 8.08575 22.9048L1.91612 25.5067C-0.638707 26.5889 -0.638707 28.3388 1.91612 29.4095L38.8796 45.067C41.4344 46.1607 45.5656 46.1607 48.1204 45.0785Z" fill="#9C9B9B" fill-opacity="0.49"/>
</svg>
