<svg id="圖層_1" data-name="圖層 1" xmlns="http://www.w3.org/2000/svg" viewBox="0 0 22.75 26.23"><defs><style>.cls-1{fill:#fff;}.cls-2{opacity:0.85;}</style></defs><path class="cls-1" d="M22.73,34.15H12.26v-.46H15.5c-.11-.22-.27-.49-.48-.82H12.81v-.5h4.32c-.1-.15-.17-.27-.23-.35l.53-.24a3.68,3.68,0,0,1,.45.59h4.3v.5H19.89c-.19.38-.33.65-.44.82h3.28Zm-7-4.7A2.81,2.81,0,0,1,13.05,32l-.25-.49a2.66,2.66,0,0,0,2-1c-.86.13-1.65.23-2.35.29l-.14-.42a6.67,6.67,0,0,0,1.89-1.31,16.38,16.38,0,0,1-1.72.13l-.15-.37a6.47,6.47,0,0,0,1.77-1.57l.5.24a7.22,7.22,0,0,1-1.32,1.21,11.34,11.34,0,0,0,1.43-.13l.45-.53.46.26a8.81,8.81,0,0,1-2.12,1.92A12.88,12.88,0,0,0,15,30a2.54,2.54,0,0,0,.19-.61Zm5.57,8.24h-.59v-.44H14.25v.44h-.61V34.61H21.3Zm-.59-2v-.52H14.25v.52Zm0,1.07v-.59H14.25v.52Zm-1.52-3.94H15.74c.16.28.31.55.44.82h2.56A4.36,4.36,0,0,0,19.19,32.82Zm0-1.28-.46.24a4.17,4.17,0,0,0-.37-.56c-.74.22-1.49.41-2.25.56l-.17-.45a.25.25,0,0,0,.18-.27V27.78h1.1a3.46,3.46,0,0,0-.31-.47l.53-.22a5.25,5.25,0,0,1,.47.69h1v2.47h-.68a9.89,9.89,0,0,1,.94,1.29Zm-.77-2.79v-.5H16.59v.5Zm0,1V29.2H16.59v.55Zm-.38,1c-.07-.09-.17-.22-.31-.37l.28-.19H16.59v.92a8.87,8.87,0,0,0,1.43-.3Zm4.43-2.89a8.68,8.68,0,0,1-.81,1.34,2,2,0,0,1,.73,1.49c0,.72-.5,1-1.5,1l-.17-.56a1.82,1.82,0,0,0,.33,0,2.08,2.08,0,0,0,.61-.07.38.38,0,0,0,.22-.39A1.88,1.88,0,0,0,21,29.25a10.37,10.37,0,0,0,.89-1.37H20.23v4h-.54V27.42h2.76Z" transform="translate(0.02 -15.72)"/><g class="cls-2"><path class="cls-1" d="M18.23,40.87h-.48A.73.73,0,0,1,18,41C18.1,41,18.16,40.92,18.23,40.87Z" transform="translate(0.02 -15.72)"/><path class="cls-1" d="M17.31,40.86h0Z" transform="translate(0.02 -15.72)"/><path class="cls-1" d="M16.48,40.92a1.55,1.55,0,0,0,.43,0A1.55,1.55,0,0,0,16.48,40.92Z" transform="translate(0.02 -15.72)"/><path class="cls-1" d="M17.14,41s-.07-.07,0-.1h-.25A.77.77,0,0,1,17.14,41Z" transform="translate(0.02 -15.72)"/><path class="cls-1" d="M17.14,41l.16.09Z" transform="translate(0.02 -15.72)"/><path class="cls-1" d="M16.93,41.83c-.08,0-.06-.21-.23-.16a5.29,5.29,0,0,1-1.12.15c-.18,0-.43-.24-.6-.2-.4,0-1.49.23-.87.29a18.43,18.43,0,0,0,2.35,0c.67-.09,1.29-.22,2-.32a4.86,4.86,0,0,1,.54,0l-.73-.09C17.88,41.46,17.48,41.78,16.93,41.83Z" transform="translate(0.02 -15.72)"/><path class="cls-1" d="M21.73,40.69l-.23.13a1.94,1.94,0,0,0-1.14.11l.18.1c.23,0,.24-.11,0-.14a2.72,2.72,0,0,0,1.33-.06A.13.13,0,0,0,21.73,40.69Z" transform="translate(0.02 -15.72)"/><path class="cls-1" d="M22.16,40.79l-.25.07h0l.25-.09Z" transform="translate(0.02 -15.72)"/><path class="cls-1" d="M14.71,41.05a10.15,10.15,0,0,1-3.07-.7h-.25a1.54,1.54,0,0,0-.19-.17L10.8,40h-.14c-.08,0-.08,0-.05.08a1.3,1.3,0,0,1,.1.15,1.2,1.2,0,0,1-.1-.15l-.18-.17a1.93,1.93,0,0,1-.38-.19,1.35,1.35,0,0,1,.38.19l.24.09h.07q-.45-.24-.87-.51l-.19-.09c-.23-.1-.45-.2-.51-.39L9,38.9H9v0q-.3-.23-.6-.48a4.89,4.89,0,0,1-.48-.2L7.89,38a.44.44,0,0,1-.29-.09c.05.14.1.27.16.4s.46.06.48.36c0-.3-.42-.15-.48-.36s-.11-.26-.16-.4a1.29,1.29,0,0,1-.53-.62,1.08,1.08,0,0,1,.53.62.44.44,0,0,0,.29.09l.06.21a4.89,4.89,0,0,0,.48.2c-.38-.31-.75-.66-1.12-1A29.6,29.6,0,0,1,4.1,33.69a10.2,10.2,0,0,1-1.92-4.33,6.09,6.09,0,0,1,1.13-4.67,5.73,5.73,0,0,1,3.81-2,13.9,13.9,0,0,1,4.94.11c1.31.23,3.79.33,5.11.46,1.79-.21,1-1.33.92-1.4-1-1-1.88-.61-4.08-1.29,1.5.41-1.14.45-2.59-.14a6.82,6.82,0,0,0-3.77-.26A13.25,13.25,0,0,0,3.33,21.6a6,6,0,0,0-1.87,1.81,7.87,7.87,0,0,0-1.19,6.7,15.23,15.23,0,0,0,3.21,5.74,13.21,13.21,0,0,0,2.41,2c.54.46,1,1,1.5,1.4a8.6,8.6,0,0,0,2.2,1.26A14.14,14.14,0,0,1,7.5,39.28c-.5-.37.53,0,.91.2.17.06.25.44.43.49a4.2,4.2,0,0,0,1.08.43c.18,0,.05.24.14.26.54.21,1.06.1,1.37.29l.69.35a2.25,2.25,0,0,0,.44.14h.32a.46.46,0,0,1-.08-.28l.47.19-.47-.19a.46.46,0,0,0,.08.28,23.22,23.22,0,0,0,2.36,0h0a3.14,3.14,0,0,1-1.32-.29c.19.08.16.15-.07.13l-.15-.15a2.27,2.27,0,0,1,1.15.18l.26-.06c.12,0,.11.12.13.19h.26A5.79,5.79,0,0,0,14.71,41.05Z" transform="translate(0.02 -15.72)"/><path class="cls-1" d="M10.41,39.82l.2.08c-.25-.13-.49-.28-.73-.43C10,39.69,10.18,39.74,10.41,39.82Z" transform="translate(0.02 -15.72)"/></g><path class="cls-1" d="M7.64,19.9A16.34,16.34,0,0,1,6.3,21.77a7.64,7.64,0,0,1,1,.88l-.4.48a13.13,13.13,0,0,0-2-1.64v4.75H4.28V21.87A9.72,9.72,0,0,1,2.7,23.15l-.42-.46A9.74,9.74,0,0,0,6,18.25H2.41v-.61H6.7v.61a12.45,12.45,0,0,1-1.61,2.69,7.25,7.25,0,0,1,.73.5,11.53,11.53,0,0,0,1.29-1.82ZM5.2,17.14l-.54.26a5.07,5.07,0,0,0-1-1.39l.57-.29A5,5,0,0,1,5.2,17.14Zm7.39-.86q0,3.55-.11,6.25a21.54,21.54,0,0,1-.24,3,1.05,1.05,0,0,1-.42.51,2,2,0,0,1-1,.19,8.39,8.39,0,0,1-1-.06l-.23-.64a7,7,0,0,0,1.12.1,1.6,1.6,0,0,0,.78-.11.66.66,0,0,0,.2-.34c0-.16.1-1,.17-2.46s.1-2.9.1-4.23v-1.6H9.8a22.24,22.24,0,0,1-.67,5.33,8.73,8.73,0,0,1-2.58,4L6,25.81a7.82,7.82,0,0,0,2.35-3.24,17.62,17.62,0,0,0,.83-5.72H7.07v-.61Z" transform="translate(0.02 -15.72)"/></svg>