<svg id="圖層_1" data-name="圖層 1" xmlns="http://www.w3.org/2000/svg" viewBox="0 0 22.75 26.23"><defs><style>.cls-1{opacity:0.85;}</style></defs><path d="M22.75,18.43H12.28V18h3.24c-.11-.22-.27-.49-.48-.82H12.83v-.5h4.32c-.1-.15-.17-.27-.23-.35l.53-.24a3.68,3.68,0,0,1,.45.59h4.3v.5H19.91c-.19.38-.33.65-.44.82h3.28Zm-7-4.7a2.81,2.81,0,0,1-2.68,2.55l-.25-.49a2.66,2.66,0,0,0,2-1c-.86.13-1.65.23-2.35.29l-.14-.42a6.67,6.67,0,0,0,1.89-1.31,16.38,16.38,0,0,1-1.72.13l-.15-.37a6.47,6.47,0,0,0,1.77-1.57l.5.24A7.22,7.22,0,0,1,13.3,13a11.34,11.34,0,0,0,1.43-.13l.45-.53.46.26a8.81,8.81,0,0,1-2.12,1.92,13,13,0,0,0,1.5-.23,2.54,2.54,0,0,0,.19-.61ZM21.32,22h-.59v-.44H14.27V22h-.61V18.89h7.66Zm-.59-2v-.52H14.27V20Zm0,1.07v-.59H14.27V21ZM19.21,17.1H15.76c.16.28.31.55.44.82h2.56A4.36,4.36,0,0,0,19.21,17.1Zm0-1.28-.46.24a4.17,4.17,0,0,0-.37-.56c-.74.22-1.49.41-2.25.56L16,15.61a.25.25,0,0,0,.18-.27V12.06h1.1a3.46,3.46,0,0,0-.31-.47l.53-.22a6.45,6.45,0,0,1,.47.69h1v2.47h-.68a9.89,9.89,0,0,1,.94,1.29ZM18.44,13v-.5H16.61V13Zm0,1v-.55H16.61V14Zm-.38,1c-.07-.09-.17-.22-.31-.37l.28-.19H16.61v.92a8.87,8.87,0,0,0,1.43-.3Zm4.43-2.89a8.68,8.68,0,0,1-.81,1.34A2,2,0,0,1,22.41,15c0,.72-.5,1-1.5,1l-.17-.56h.33a2.08,2.08,0,0,0,.61-.07A.38.38,0,0,0,21.9,15,1.9,1.9,0,0,0,21,13.53a10.37,10.37,0,0,0,.89-1.37H20.25v4h-.54V11.7h2.76Z" transform="translate(0)"/><g class="cls-1"><path d="M18.25,25.15h-.48a.75.75,0,0,1,.25.13C18.12,25.28,18.18,25.2,18.25,25.15Z" transform="translate(0)"/><path d="M17.33,25.14Z" transform="translate(0)"/><path d="M16.5,25.2a1.55,1.55,0,0,0,.43,0A1.55,1.55,0,0,0,16.5,25.2Z" transform="translate(0)"/><path d="M17.16,25.28s-.07-.07,0-.1h-.25A.77.77,0,0,1,17.16,25.28Z" transform="translate(0)"/><path d="M17.16,25.28l.16.09Z" transform="translate(0)"/><path d="M17,26.11c-.08,0-.06-.21-.23-.16a5.29,5.29,0,0,1-1.12.15c-.18,0-.43-.24-.6-.2-.4,0-1.49.23-.87.29a18.43,18.43,0,0,0,2.35,0c.67-.09,1.29-.22,2-.32a4.86,4.86,0,0,1,.54,0l-.73-.09C17.9,25.74,17.5,26.06,17,26.11Z" transform="translate(0)"/><path d="M21.75,25l-.23.13a1.94,1.94,0,0,0-1.14.11l.18.1c.23,0,.24-.11,0-.14a2.72,2.72,0,0,0,1.33-.06.13.13,0,0,0-.12-.14Z" transform="translate(0)"/><path d="M22.18,25.07l-.25.07h0l.25-.09Z" transform="translate(0)"/><path d="M14.73,25.33a10.15,10.15,0,0,1-3.07-.7h-.25a1.54,1.54,0,0,0-.19-.17l-.4-.18h-.14c-.08,0-.08,0,0,.08l.1.15a1.3,1.3,0,0,1-.1-.15l-.18-.17a1.93,1.93,0,0,1-.38-.19,1.35,1.35,0,0,1,.38.19l.24.09h.07q-.45-.24-.87-.51l-.19-.09c-.23-.1-.45-.2-.51-.39L9,23.18H9q-.3-.22-.6-.48a4.89,4.89,0,0,1-.48-.2l0-.22a.44.44,0,0,1-.29-.09c0,.14.1.27.16.4s.46.06.48.36c0-.3-.42-.15-.48-.36a3.65,3.65,0,0,0-.16-.4,1.24,1.24,0,0,1-.53-.62,1.08,1.08,0,0,1,.53.62.44.44,0,0,0,.29.09l.06.21a4.89,4.89,0,0,0,.48.2c-.38-.31-.75-.66-1.12-1A30,30,0,0,1,4.12,18,10.2,10.2,0,0,1,2.2,13.64,6.09,6.09,0,0,1,3.33,9,5.73,5.73,0,0,1,7.14,7a13.9,13.9,0,0,1,4.94.11c1.31.23,3.79.33,5.11.46,1.79-.21,1-1.33.92-1.4-1-1-1.88-.61-4.08-1.29,1.5.41-1.14.45-2.59-.14a6.82,6.82,0,0,0-3.77-.26A13.25,13.25,0,0,0,3.35,5.88,6,6,0,0,0,1.48,7.69a7.87,7.87,0,0,0-1.19,6.7A15.23,15.23,0,0,0,3.5,20.13a13.21,13.21,0,0,0,2.41,2c.54.46,1,1,1.5,1.4a8.6,8.6,0,0,0,2.2,1.26,14.14,14.14,0,0,1-2.09-1.23c-.5-.37.53,0,.91.2.17.06.25.44.43.49a4.2,4.2,0,0,0,1.08.43c.18,0,.05.24.14.26.54.21,1.06.1,1.37.29l.69.35a2.25,2.25,0,0,0,.44.14h.32a.46.46,0,0,1-.08-.28l.47.19-.47-.19a.46.46,0,0,0,.08.28,23.22,23.22,0,0,0,2.36,0h0a3.14,3.14,0,0,1-1.32-.29c.19.08.16.15-.07.13l-.15-.15a2.27,2.27,0,0,1,1.15.18l.26-.06c.12,0,.11.12.13.19h.26A5.79,5.79,0,0,0,14.73,25.33Z" transform="translate(0)"/><path d="M10.43,24.1l.2.08c-.25-.13-.49-.28-.73-.43C10,24,10.2,24,10.43,24.1Z" transform="translate(0)"/></g><path d="M7.66,4.18A16.34,16.34,0,0,1,6.32,6.05a7.59,7.59,0,0,1,1,.88l-.4.48a13.13,13.13,0,0,0-2-1.64v4.75H4.3V6.15A9.72,9.72,0,0,1,2.72,7.43L2.3,7A9.77,9.77,0,0,0,6,2.53H2.43V1.92H6.72v.61A12.45,12.45,0,0,1,5.11,5.22a7.25,7.25,0,0,1,.73.5A11.09,11.09,0,0,0,7.13,3.9ZM5.22,1.42l-.54.26a4.93,4.93,0,0,0-1-1.39L4.25,0A5,5,0,0,1,5.22,1.42ZM12.61.56q0,3.56-.11,6.25a21.54,21.54,0,0,1-.24,3,1.05,1.05,0,0,1-.42.51,2,2,0,0,1-1,.19,8.39,8.39,0,0,1-1-.06l-.23-.64a7,7,0,0,0,1.12.1,1.6,1.6,0,0,0,.78-.11.66.66,0,0,0,.2-.34c0-.16.1-1,.17-2.46s.1-2.9.1-4.23V1.17H9.82A22.24,22.24,0,0,1,9.15,6.5a8.73,8.73,0,0,1-2.58,4L6,10.09A7.82,7.82,0,0,0,8.37,6.85,17.62,17.62,0,0,0,9.2,1.13H7.09V.52Z" transform="translate(0)"/></svg>